<?xml version="1.0" standalone="no"?>
<!DOCTYPE svg PUBLIC "-//W3C//DTD SVG 20010904//EN"
 "http://www.w3.org/TR/2001/REC-SVG-20010904/DTD/svg10.dtd">
<svg version="1.0" xmlns="http://www.w3.org/2000/svg"
 width="1280.000000pt" height="1280.000000pt" viewBox="0 0 1280.000000 1280.000000"
 preserveAspectRatio="xMidYMid meet">

<g transform="translate(0.000000,1280.000000) scale(0.100000,-0.100000)"
fill="#000000" stroke="none">
<path d="M6005 10173 c-282 -36 -671 -127 -900 -210 -796 -286 -1513 -881
-1965 -1628 -82 -137 -220 -414 -275 -555 -98 -250 -181 -539 -210 -734 -35
-241 -42 -801 -14 -1126 23 -258 120 -626 246 -930 324 -780 857 -1408 1549
-1825 426 -257 997 -461 1434 -514 288 -35 800 -33 1087 5 527 68 1234 359
1664 683 247 187 660 603 848 856 328 440 616 1156 681 1690 30 249 22 840
-15 1088 -88 583 -334 1177 -688 1657 -590 801 -1453 1338 -2417 1504 -80 14
-199 30 -265 36 -112 9 -693 12 -760 3z m650 -303 c238 -12 391 -34 590 -85
816 -209 1499 -681 2002 -1383 260 -363 494 -906 572 -1328 42 -228 46 -287
46 -709 0 -430 -1 -433 -51 -675 -136 -645 -445 -1221 -914 -1704 -376 -386
-774 -654 -1253 -842 -254 -100 -582 -183 -809 -204 -287 -28 -761 -20 -1023
16 -339 47 -832 229 -1195 442 -492 288 -919 710 -1206 1194 -344 579 -504
1163 -504 1836 0 316 30 562 100 837 160 622 478 1167 946 1625 361 352 757
605 1221 781 241 90 615 182 808 198 147 12 431 12 670 1z"/>
<path d="M6190 9694 c-19 -2 -91 -9 -160 -15 -238 -20 -556 -98 -813 -200
-323 -128 -677 -338 -937 -557 -114 -96 -333 -316 -425 -427 -401 -482 -663
-1109 -736 -1765 -17 -149 -17 -523 0 -670 86 -763 404 -1431 936 -1966 335
-337 698 -580 1119 -749 1070 -429 2307 -261 3217 436 588 450 1009 1084 1189
1789 79 308 95 453 95 840 -1 351 -12 462 -71 730 -93 418 -273 819 -524 1170
-535 748 -1321 1225 -2230 1354 -205 29 -516 43 -660 30z m267 -1407 c11 -17
59 -79 108 -137 48 -58 105 -132 127 -164 34 -52 38 -66 38 -120 -1 -107 -30
-266 -50 -266 -6 0 -10 52 -10 125 0 141 -16 201 -72 269 -37 45 -148 103
-159 83 -4 -6 -15 -115 -24 -242 -19 -260 -38 -395 -62 -435 -45 -77 -177 -65
-260 22 -75 79 -96 203 -39 240 19 13 149 8 191 -7 22 -8 43 -15 47 -15 18 0
35 105 63 390 17 170 32 258 47 278 17 20 35 14 55 -21z m2130 -578 c6 -6 9
-26 6 -45 -5 -30 -3 -34 16 -34 12 0 39 9 60 20 51 26 57 17 64 -92 3 -65 10
-97 26 -124 l22 -37 -31 -32 -32 -33 21 -21 c32 -32 13 -61 -40 -61 -36 0 -40
3 -39 23 4 40 0 47 -21 47 -24 0 -89 -37 -89 -50 0 -5 9 -14 20 -20 26 -14 26
-56 0 -70 -12 -6 -35 -10 -53 -8 -28 3 -32 6 -30 31 1 15 -3 27 -8 27 -28 0
-99 -54 -99 -76 0 -6 9 -14 20 -17 22 -6 27 -36 8 -55 -7 -7 -27 -12 -46 -12
-25 0 -35 5 -39 20 -6 22 -18 26 -28 10 -10 -16 -63 -11 -112 11 -74 33 -113
22 -669 -201 -778 -312 -1362 -555 -1576 -657 -135 -64 -140 -73 -88 -149 38
-55 107 -107 188 -144 78 -36 91 -62 63 -123 -10 -23 -33 -55 -50 -72 l-32
-30 -207 -5 c-183 -5 -213 -8 -254 -27 -64 -29 -121 -84 -235 -227 -224 -280
-366 -376 -558 -376 -101 0 -168 15 -253 55 -191 90 -325 251 -444 533 -77
182 -110 320 -110 472 -1 176 39 299 134 413 104 123 322 229 473 228 39 0
115 -9 170 -21 234 -49 377 -60 477 -36 63 14 104 43 253 170 175 150 252 189
371 190 90 1 131 -14 140 -50 8 -32 -9 -57 -106 -159 -107 -113 -145 -183
-145 -270 l0 -60 30 3 c136 14 2130 737 2247 815 18 12 42 41 53 64 11 24 35
57 53 76 18 18 32 43 32 54 0 28 26 53 55 53 30 0 40 -15 40 -60 0 -30 4 -36
25 -38 29 -5 100 15 100 27 0 5 -7 14 -15 21 -18 15 -19 42 -3 58 19 19 68 15
74 -5 16 -54 43 -64 93 -38 36 18 39 30 11 38 -28 7 -26 51 2 71 26 19 50 20
65 5z m-206 -1360 c-23 -31 -24 -40 -32 -333 -10 -367 -11 -378 -49 -409 -64
-54 -196 -60 -237 -12 -29 33 -29 44 0 86 31 46 90 76 167 86 61 8 65 10 71
38 15 70 4 333 -14 352 -14 13 -220 -25 -419 -78 -51 -13 -55 -35 -60 -315 -5
-257 -12 -287 -76 -330 -62 -42 -188 -39 -212 6 -43 80 43 167 176 178 l61 4
6 272 c7 301 13 342 61 365 32 15 328 91 469 120 54 11 96 15 101 10 6 -5 1
-21 -13 -40z"/>
</g>
</svg>
